<svg id="visual" viewBox="0 0 960 540" width="960" height="540" xmlns="http://www.w3.org/2000/svg" xmlns:xlink="http://www.w3.org/1999/xlink" version="1.1"><rect x="0" y="0" width="960" height="540" fill="#1d2152"></rect><path d="M0 520L16 516.8C32 513.7 64 507.3 96 507.7C128 508 160 515 192 517.8C224 520.7 256 519.3 288 514C320 508.7 352 499.3 384 495.2C416 491 448 492 480 496.7C512 501.3 544 509.7 576 515C608 520.3 640 522.7 672 523C704 523.3 736 521.7 768 523C800 524.3 832 528.7 864 527.3C896 526 928 519 944 515.5L960 512L960 541L944 541C928 541 896 541 864 541C832 541 800 541 768 541C736 541 704 541 672 541C640 541 608 541 576 541C544 541 512 541 480 541C448 541 416 541 384 541C352 541 320 541 288 541C256 541 224 541 192 541C160 541 128 541 96 541C64 541 32 541 16 541L0 541Z" fill="#f5bf43" stroke-linecap="round" stroke-linejoin="miter"></path></svg>